HIERARCHY
ROOT Hips
{
	OFFSET 0.000000 0.000000 0.000000
	CHANNELS 6 Xposition Yposition Zposition Zrotation Yrotation Xrotation 
	JOINT LeftUpLeg_virtual
	{
		OFFSET 0.000000 0.000000 0.000000
		CHANNELS 3 Zrotation Yrotation Xrotation
		JOINT LeftUpLeg
		{
			OFFSET 8.479694 -4.795517 -0.379053
			CHANNELS 3 Zrotation Yrotation Xrotation
			JOINT LeftLeg
			{
				OFFSET 0.485052 -32.551468 0.112863
				CHANNELS 3 Zrotation Yrotation Xrotation
				JOINT LeftFoot
				{
					OFFSET 0.438033 -32.635670 -3.012641
					CHANNELS 3 Zrotation Yrotation Xrotation
					JOINT LeftToeBase
					{
						OFFSET 0.970169 -13.225353 11.864223
						CHANNELS 3 Zrotation Yrotation Xrotation
						End Site
						{
							OFFSET 0.000000 0.000000 0.000000
						}
					}
				}
			}
		}
	}
	JOINT RightUpLeg_virtual
	{
		OFFSET 0.000000 0.000000 0.000000
		CHANNELS 3 Zrotation Yrotation Xrotation
		JOINT RightUpLeg
		{
			OFFSET -8.479694 -4.795517 -0.379053
			CHANNELS 3 Zrotation Yrotation Xrotation
			JOINT RightLeg
			{
				OFFSET -0.484100 -32.551483 0.112903
				CHANNELS 3 Zrotation Yrotation Xrotation
				JOINT RightFoot
				{
					OFFSET -0.438985 -32.635651 -3.012681
					CHANNELS 3 Zrotation Yrotation Xrotation
					JOINT RightToeBase
					{
						OFFSET -0.970169 -13.225354 11.864223
						CHANNELS 3 Zrotation Yrotation Xrotation
						End Site
						{
							OFFSET 0.000000 0.000000 0.000000
						}
					}
				}
			}
		}
	}
	JOINT Spine_virtual
	{
		OFFSET 0.000000 0.000000 0.000000
		CHANNELS 3 Zrotation Yrotation Xrotation
		JOINT Spine
		{
			OFFSET 0.000000 7.722015 1.166203
			CHANNELS 3 Zrotation Yrotation Xrotation
			JOINT Spine1
			{
				OFFSET 0.000000 12.024086 0.248766
				CHANNELS 3 Zrotation Yrotation Xrotation
				JOINT Spine2
				{
					OFFSET -0.000000 11.503036 -0.491240
					CHANNELS 3 Zrotation Yrotation Xrotation
					JOINT Neck_virtual
					{
						OFFSET 0.000000 0.000000 0.000000
						CHANNELS 3 Zrotation Yrotation Xrotation
						JOINT Neck
						{
							OFFSET 0.000000 18.430687 -3.123054
							CHANNELS 3 Zrotation Yrotation Xrotation
							JOINT Head
							{
								OFFSET -0.000000 9.051071 1.034021
								CHANNELS 3 Zrotation Yrotation Xrotation
								End Site
								{
									OFFSET 0.000000 0.000000 0.000000
								}
							}
						}
					}
					JOINT LeftShoulder_virtual
					{
						OFFSET 0.000000 0.000000 0.000000
						CHANNELS 3 Zrotation Yrotation Xrotation
						JOINT LeftShoulder
						{
							OFFSET 6.197824 13.665230 -4.064723
							CHANNELS 3 Zrotation Yrotation Xrotation
							JOINT LeftArm
							{
								OFFSET 7.778132 -0.187073 -1.709282
								CHANNELS 3 Zrotation Yrotation Xrotation
								JOINT LeftForeArm
								{
									OFFSET 21.954697 0.000000 -2.041093
									CHANNELS 3 Zrotation Yrotation Xrotation
									JOINT LeftHand
									{
										OFFSET 22.992908 0.000000 -0.870901
										CHANNELS 3 Zrotation Yrotation Xrotation
										End Site
										{
											OFFSET 0.000000 0.000000 0.000000
										}
									}
								}
							}
						}
					}
					JOINT RightShoulder_virtual
					{
						OFFSET 0.000000 0.000000 0.000000
						CHANNELS 3 Zrotation Yrotation Xrotation
						JOINT RightShoulder
						{
							OFFSET -6.197824 13.665230 -4.064723
							CHANNELS 3 Zrotation Yrotation Xrotation
							JOINT RightArm
							{
								OFFSET -7.778132 -0.187073 -1.709282
								CHANNELS 3 Zrotation Yrotation Xrotation
								JOINT RightForeArm
								{
									OFFSET -21.954697 0.000000 -2.041093
									CHANNELS 3 Zrotation Yrotation Xrotation
									JOINT RightHand
									{
										OFFSET -22.992908 0.000000 -0.870901
										CHANNELS 3 Zrotation Yrotation Xrotation
										End Site
										{
											OFFSET 0.000000 0.000000 0.000000
										}
									}
								}
							}
						}
					}
				}
			}
		}
	}
}
MOTION
Frames: 11
Frame Time: 0.033333
-0.798136 80.703758 9.617846 179.964051 2.780469 -179.939722 -1.896602 -2.710295 12.646271 2.545027 -3.825185 -19.387413 5.121911 2.676251 26.780427 -0.532510 -5.865050 -13.157974 0.000000 0.000000 0.000000 1.816812 -3.586047 13.639462 -5.753587 2.361510 -20.952941 1.238173 7.326038 31.716072 11.620163 5.691819 -16.111146 0.000000 0.000000 0.000000 5.143311 0.161737 -0.252672 -3.441098 -0.632113 -2.290460 0.663834 -2.111235 6.041229 0.023613 0.031209 0.001566 0.145948 -0.660165 7.439520 -1.824713 2.595664 -5.879220 0.000000 0.000000 0.000000 1.623316 0.059610 4.642147 -15.204930 -9.015980 4.472601 -53.319537 -22.660295 -3.119390 3.038102 -29.524452 1.614179 0.000000 0.000000 0.000000 -2.386104 1.533824 4.090076 27.423064 -0.588454 7.396844 44.122237 13.102354 1.054791 0.527870 21.036006 -3.348456 0.000000 0.000000 0.000000 
-0.730928 80.687332 9.607600 179.893563 2.671989 -179.996084 -1.880280 -2.718815 12.734492 2.502933 -3.749234 -19.338065 5.217891 2.737686 27.075937 -0.462055 -5.829810 -13.246457 0.000000 0.000000 0.000000 1.848429 -3.490306 13.686606 -5.781722 2.451779 -20.954641 1.481313 7.598779 31.812620 12.000131 6.150269 -16.134766 0.000000 0.000000 0.000000 5.072338 0.303677 -0.195800 -3.465145 -0.632125 -2.287251 0.632854 -2.093634 6.101274 -0.000198 0.021852 0.030003 0.183607 -0.619753 7.463210 -1.764446 2.482848 -5.857136 0.000000 0.000000 0.000000 1.672631 0.028611 4.659853 -15.201015 -8.984746 4.572793 -53.431689 -22.193892 -3.002085 3.077098 -28.861873 1.679919 0.000000 0.000000 0.000000 -2.347841 1.477042 4.087534 27.414574 -0.618485 7.419735 44.269663 13.051249 1.463233 0.495359 21.040697 -3.394101 0.000000 0.000000 0.000000 
-0.684952 80.652946 9.610332 179.860737 2.702483 -179.963819 -1.728309 -2.640553 12.746309 2.345841 -3.805904 -19.467991 5.160721 2.697089 27.200038 -0.432522 -5.869242 -13.239670 0.000000 0.000000 0.000000 1.877330 -3.435158 13.797697 -5.707499 2.595849 -21.219490 1.272554 7.532512 32.080039 11.939575 6.045985 -16.285947 0.000000 0.000000 0.000000 5.024703 0.423323 -0.166068 -3.454318 -0.658713 -2.297935 0.643813 -2.097394 6.128938 0.003585 0.014442 0.029760 0.220910 -0.574968 7.579781 -1.578354 2.381225 -5.832434 0.000000 0.000000 0.000000 1.709079 0.068232 4.771190 -15.136941 -8.906982 4.490052 -53.656638 -21.045707 -2.625143 3.093767 -27.276152 1.739561 0.000000 0.000000 0.000000 -2.344043 1.434895 4.207040 27.287133 -0.571834 7.537846 44.442327 12.946998 2.235808 0.434800 21.056105 -3.485783 0.000000 0.000000 0.000000 
-0.653457 80.625389 9.618245 179.822803 2.924683 -179.966933 -1.858264 -2.502816 12.790187 2.491205 -3.600259 -19.610059 5.223867 2.888070 27.411209 -0.541353 -6.096587 -13.380968 0.000000 0.000000 0.000000 1.875447 -3.280419 13.904657 -5.648415 2.923465 -21.420006 1.091794 7.554595 32.286653 11.863502 5.973132 -16.427109 0.000000 0.000000 0.000000 4.954171 0.505779 -0.072662 -3.479727 -0.682942 -2.320332 0.701339 -2.086875 6.185249 0.024870 0.015793 0.036586 0.198072 -0.623856 7.635021 -1.355933 2.258933 -5.715310 0.000000 0.000000 0.000000 1.672504 0.090030 4.788208 -15.066105 -8.918490 4.583308 -53.973401 -19.491010 -2.142378 3.296539 -25.137978 1.853327 0.000000 0.000000 0.000000 -2.388619 1.554630 4.194908 27.153588 -0.613378 7.503613 44.704404 12.760633 2.944702 0.432172 21.007008 -3.600723 0.000000 0.000000 0.000000 
-0.641745 80.588371 9.627182 179.933889 3.025241 -179.917756 -1.848016 -2.498695 12.782558 2.603220 -3.303410 -19.747834 5.235454 3.008398 27.633728 -0.625108 -6.249189 -13.559731 0.000000 0.000000 0.000000 2.047260 -3.276038 13.968909 -5.689810 3.296359 -21.619847 0.933964 7.534668 32.392425 11.819912 5.884946 -16.696635 0.000000 0.000000 0.000000 5.039388 0.494350 -0.037364 -3.439745 -0.711858 -2.280200 0.719205 -2.088802 6.200940 0.006546 -0.014517 0.068705 0.268527 -0.577369 7.717820 -1.001568 2.126021 -5.616411 0.000000 0.000000 0.000000 1.716772 0.103556 4.853803 -14.930165 -8.874515 4.528751 -54.381591 -17.691406 -1.739667 3.344246 -22.684006 2.121324 0.000000 0.000000 0.000000 -2.337165 1.511122 4.275496 26.973957 -0.509286 7.522491 45.007484 12.727057 3.260424 0.495662 20.818673 -3.512819 0.000000 0.000000 0.000000 
-0.635090 80.566193 9.669558 179.952877 3.165675 -179.933042 -1.932461 -2.471087 12.764994 2.651429 -2.737874 -19.774412 5.268025 3.019303 27.796575 -0.836138 -6.524140 -13.712338 0.000000 0.000000 0.000000 1.880720 -3.253155 14.033522 -5.424172 3.648861 -21.680523 0.787019 7.637361 32.393186 11.765778 5.760342 -16.734609 0.000000 0.000000 0.000000 5.082238 0.447213 0.055488 -3.464459 -0.735625 -2.252906 0.771135 -2.081192 6.301350 -0.012446 -0.042318 -0.046706 0.363742 -0.556698 7.827261 -0.627043 1.950188 -5.505798 0.000000 0.000000 0.000000 1.743028 0.143142 4.986206 -14.708001 -8.906539 4.610000 -54.916302 -15.746769 -1.327617 3.607102 -20.283826 2.108873 0.000000 0.000000 0.000000 -2.315766 1.651186 4.355247 26.838735 -0.636255 7.512575 45.356985 12.761961 3.259828 0.432884 20.401340 -3.732547 0.000000 0.000000 0.000000 
-0.605080 80.566551 9.764502 179.956060 3.207975 -179.929490 -1.933659 -2.434332 12.711972 2.649514 -2.385964 -19.771369 5.382245 3.009586 27.776429 -1.089484 -6.774953 -13.690612 0.000000 0.000000 0.000000 1.913692 -3.296255 14.019202 -5.402732 3.971915 -21.750621 0.606214 7.615742 32.388296 11.736303 5.748565 -16.767723 0.000000 0.000000 0.000000 5.127081 0.427088 0.136082 -3.510354 -0.736792 -2.180944 0.823999 -2.036119 6.335350 -0.009964 -0.037983 -0.008461 0.442298 -0.539244 7.866927 -0.224709 1.740977 -5.337658 0.000000 0.000000 0.000000 1.808335 0.136875 5.026345 -14.366461 -8.783947 4.502199 -55.528297 -13.697453 -1.357697 3.773214 -18.255424 2.297809 0.000000 0.000000 0.000000 -2.233534 1.572371 4.408421 26.775264 -0.619986 7.431169 45.707127 12.848604 2.488652 0.442289 19.907855 -3.715136 0.000000 0.000000 0.000000 
-0.564561 80.587708 9.886144 179.946839 3.047070 -179.985252 -1.925007 -2.448275 12.683140 2.613212 -2.193293 -19.753431 5.514352 2.944110 27.596705 -1.356974 -6.983815 -13.583279 0.000000 0.000000 0.000000 1.934471 -3.309798 14.051665 -5.305089 4.025728 -21.795591 0.437713 7.655288 32.356085 11.617900 5.678361 -16.801099 0.000000 0.000000 0.000000 5.228397 0.348405 0.233266 -3.515819 -0.768952 -2.072822 0.900176 -2.016741 6.432251 -0.012906 -0.057730 0.040816 0.538695 -0.524803 7.906880 0.133739 1.557954 -5.119897 0.000000 0.000000 0.000000 1.874424 0.284002 5.095857 -13.908463 -8.555324 4.416463 -56.220810 -11.643537 -1.956176 4.065536 -16.491369 2.369489 0.000000 0.000000 0.000000 -2.174067 1.653552 4.411781 26.830142 -0.654069 7.404849 45.909366 12.836016 1.009102 0.360164 19.188634 -3.843892 0.000000 0.000000 0.000000 
-0.524483 80.620026 10.024632 -179.994855 2.756555 -179.926007 -1.821976 -2.501741 12.658638 2.605263 -2.181401 -19.783243 5.651397 2.925005 27.299532 -1.626728 -7.154309 -13.362372 0.000000 0.000000 0.000000 1.976127 -3.338729 14.033794 -5.173686 4.117687 -21.898162 0.395124 7.596083 32.334471 11.411171 5.540436 -16.746803 0.000000 0.000000 0.000000 5.381435 0.252129 0.250343 -3.457878 -0.755091 -2.005398 1.008294 -1.974127 6.511661 0.028792 -0.038844 0.058675 0.541480 -0.636816 8.028332 0.429178 1.383392 -4.877894 0.000000 0.000000 0.000000 1.866126 0.234504 5.160332 -13.499635 -8.088189 4.213605 -57.085109 -9.680273 -3.333756 4.353291 -15.038174 2.321309 0.000000 0.000000 0.000000 -2.186662 1.628724 4.512344 26.971519 -0.730858 7.335744 45.821458 12.842815 -1.400372 0.293471 18.206380 -3.962373 0.000000 0.000000 0.000000 
-0.469152 80.652740 10.190047 179.916690 2.516678 -179.967083 -1.843941 -2.378744 12.693153 2.561071 -2.295453 -19.813537 5.759985 2.831525 26.944760 -1.873811 -7.282350 -13.137924 0.000000 0.000000 0.000000 1.977474 -3.348512 14.019573 -5.151717 4.036939 -21.944353 0.327760 7.481554 32.365551 11.316492 5.557979 -16.684670 0.000000 0.000000 0.000000 5.465151 -0.063907 0.277703 -3.437374 -0.609260 -1.885867 1.104113 -1.836611 6.625007 0.065343 0.014730 0.025344 0.631636 -0.634282 8.159318 0.667020 1.217939 -4.558514 0.000000 0.000000 0.000000 1.951990 0.194304 5.224955 -13.116794 -7.413018 4.041326 -57.950132 -7.905517 -6.092069 4.631024 -13.766539 2.259164 0.000000 0.000000 0.000000 -2.122470 1.709181 4.608080 27.185913 -0.980159 7.132478 45.268008 12.885002 -5.177589 0.223797 16.815364 -3.992348 0.000000 0.000000 0.000000 
-0.410737 80.681160 10.365949 179.935883 2.001583 -179.932646 -1.780766 -2.577308 12.661050 2.597218 -2.532848 -19.906474 5.866250 2.796528 26.697302 -2.073915 -7.378107 -12.922046 0.000000 0.000000 0.000000 1.969379 -3.469839 13.938195 -5.083703 3.996241 -21.975859 0.439451 7.314754 32.354872 11.118989 5.458979 -16.606867 0.000000 0.000000 0.000000 5.639604 -0.047195 0.174283 -3.287124 -0.760863 -1.753880 1.145414 -1.932670 6.743822 0.001428 -0.049964 0.025012 0.784476 -0.437821 8.289059 0.795792 1.070580 -4.214698 0.000000 0.000000 0.000000 2.112809 0.292432 5.256637 -12.848435 -6.631107 3.865149 -58.800402 -6.472545 -9.502928 4.923540 -12.583235 2.022844 0.000000 0.000000 0.000000 -1.925673 1.760031 4.704155 27.500669 -1.036529 7.101330 44.140610 13.067521 -10.359765 0.125233 15.049128 -3.988626 0.000000 0.000000 0.000000 
